<svg xmlns="http://www.w3.org/2000/svg" width="61" height="58" fill="none"><path fill="url(#a)" fill-rule="evenodd" d="m24.27 57.413-2.07-.356c-7.467-1.289-13.826-6.674-17.906-15.163a36.712 36.712 0 0 1-.712-1.585l-.201-.486a38.287 38.287 0 0 1-1.064-2.933l-.12-.365a38.735 38.735 0 0 1-.454-1.614l-.096-.393a37.572 37.572 0 0 1-.39-1.768 33.918 33.918 0 0 1-.202-1.152l-.078-.481A34.322 34.322 0 0 1 .78 29.53l-.006-.094c-.048-.495-.08-.986-.104-1.473l-.017-.48a30.196 30.196 0 0 1-.01-1.59 28.9 28.9 0 0 1 .05-1.19l.019-.315c.037-.49.09-.972.153-1.448l.057-.362c.053-.356.113-.708.182-1.055.03-.153.161-.772.178-.845.065-.267.136-.53.21-.789l.023-.085c.123-.426.262-.839.41-1.245l.098-.26c.14-.364.286-.723.448-1.069l.093-.186c.235-.482.436-.857.642-1.198.134-.2.267-.385.403-.571.036-.049.195-.245.195-.245a18.39 18.39 0 0 1 1.289-1.507 19.854 19.854 0 0 1 .977-.965 24.251 24.251 0 0 1 1.06-.925s.22-.188.274-.231c.085-.068.404-.308.404-.308l.275-.21a28.1 28.1 0 0 1 1.077-.765l.164-.106c.325-.215.658-.425.999-.632l.342-.205c.332-.196.67-.388 1.016-.575l.225-.125c.417-.222.844-.438 1.28-.648l.335-.158c.347-.163.698-.322 1.055-.478l.379-.163c.46-.195.928-.385 1.406-.567l.072-.027a49.78 49.78 0 0 1 1.401-.5l.43-.144c.405-.133.814-.262 1.228-.386l.327-.1c.514-.15 1.036-.293 1.565-.43l.378-.094c.423-.106.853-.207 1.286-.304l.462-.103a56.572 56.572 0 0 1 1.676-.336l.581-.102 1.083-.168.99-.132.766-.087.814-.08.86-.07a44.098 44.098 0 0 1 1.84-.095l.21-.005c.251-.007.503-.012.759-.016l1 .003s.82.019 1.027.027l.433.019c.206.01.413.022.62.035l.444.032c.21.016.42.034.63.054l.65.064.849.108c.352.049.705.102 1.06.163l2.069.357a29.11 29.11 0 0 1 2.877.648c7.068 1.991 11.103 6.325 11.992 12.881.975 7.037-.33 17.883-5.437 26.251-4.485 7.345-11.073 11.86-19.584 13.42a21.94 21.94 0 0 1-3.948.365c-1.177 0-2.355-.1-3.5-.298Z" clip-rule="evenodd"/><path fill="url(#b)" fill-rule="evenodd" d="M7.212 42.178c-4.307-8.951-4.799-19.39-1.198-25.386C9.77 11.264 17.734 7.036 27.87 5.18a48.157 48.157 0 0 1 8.403-.762c3.348 0 6.422.387 9.133 1.152 6.864 1.93 10.776 6.08 11.63 12.334.962 6.948-.33 17.666-5.388 25.946-4.426 7.24-10.951 11.693-19.392 13.239a21.63 21.63 0 0 1-3.9.36c-8.77 0-16.476-5.566-21.144-15.27Z" clip-rule="evenodd"/><path fill="url(#c)" fill-opacity=".1" fill-rule="evenodd" d="M7.212 42.178c-4.307-8.951-4.799-19.39-1.198-25.386C9.77 11.264 17.734 7.036 27.87 5.18a48.157 48.157 0 0 1 8.403-.762c3.348 0 6.422.387 9.133 1.152 6.864 1.93 10.776 6.08 11.63 12.334.962 6.948-.33 17.666-5.388 25.946-4.426 7.24-10.951 11.693-19.392 13.239a21.63 21.63 0 0 1-3.9.36c-8.77 0-16.476-5.566-21.144-15.27Z" clip-rule="evenodd"/><path fill="url(#d)" fill-rule="evenodd" d="M7.212 42.178c-4.307-8.951-4.799-19.39-1.198-25.386C9.77 11.264 17.734 7.036 27.87 5.18a48.157 48.157 0 0 1 8.403-.762c3.348 0 6.422.387 9.133 1.152 6.864 1.93 10.776 6.08 11.63 12.334.962 6.948-.33 17.666-5.388 25.946-4.426 7.24-10.951 11.693-19.392 13.239a21.63 21.63 0 0 1-3.9.36c-8.77 0-16.476-5.566-21.144-15.27Z" clip-rule="evenodd" style="mix-blend-mode:hard-light"/><path fill="#2196F3" fill-rule="evenodd" stroke="#2196F3" stroke-linecap="round" stroke-linejoin="round" d="M48.668 5.682c0 1.246-.885 2.257-1.978 2.257-1.092 0-1.977-1.01-1.977-2.257s1.977-4.665 1.977-4.665 1.978 3.42 1.978 4.665Zm10.877 8.277c0 2.136-1.549 3.869-3.46 3.869-1.912 0-3.462-1.733-3.462-3.869s3.461-7.998 3.461-7.998 3.461 5.862 3.461 7.998Zm-9.888 8.556c0 1.78-1.328 3.224-2.966 3.224-1.639 0-2.967-1.444-2.967-3.224 0-1.78 2.967-6.665 2.967-6.665s2.966 4.885 2.966 6.665Z" clip-rule="evenodd"/><defs><linearGradient id="a" x1="-22.17" x2="10.201" y1="-1.282" y2="67.857" gradientUnits="userSpaceOnUse"><stop stop-color="#F2F3F4"/><stop offset="1" stop-color="#B0BDC4"/></linearGradient><linearGradient id="b" x1="-13.995" x2="28.157" y1="32.638" y2="68.935" gradientUnits="userSpaceOnUse"><stop stop-color="#F7F8F8"/><stop offset="1" stop-color="#E7EBEC"/></linearGradient><linearGradient id="d" x1="-39.906" x2="13.166" y1="34.744" y2="87.507" gradientUnits="userSpaceOnUse"><stop stop-color="#fff" stop-opacity=".01"/><stop offset=".364" stop-color="#fff" stop-opacity=".01"/><stop offset=".522" stop-color="#fff" stop-opacity=".8"/><stop offset=".642" stop-color="#fff" stop-opacity=".2"/><stop offset=".697" stop-color="#fff" stop-opacity=".6"/><stop offset=".782" stop-color="#fff" stop-opacity=".01"/><stop offset="1" stop-color="#fff" stop-opacity=".01"/><stop offset="1" stop-color="#fff" stop-opacity=".01"/></linearGradient><radialGradient id="c" cx="0" cy="0" r="1" gradientTransform="matrix(0 53.0309 -53.7167 0 8.93 16.56)" gradientUnits="userSpaceOnUse"><stop stop-color="#fff"/><stop offset="1" stop-color="#fff" stop-opacity=".5"/></radialGradient></defs></svg>