<svg class="lensIconForLeftSide__lensIcon___1E_TJ" viewBox="0 0 280 248" xmlns="http://www.w3.org/2000/svg"><g class="lensIconForLeftSide__shadow___3BM8c" filter="url(#lensIconForLeftSideA)"><path d="M239.497 200.799c26.556-28.326 36.419-69.551 31.108-107.235-4.805-32.8785-33.637-51.8469-62.722-61.7105C153.001 11.6206 42.4786 14.4026 15.417 62.9617-12.9091 114.809 41.9728 240 144.655 240c37.431-.253 60.446-10.116 82.449-27.82-1.264 1.011-2.529 1.77-3.793 2.782 5.817-4.3 11.381-8.852 16.186-14.163Z" fill="url(#lensIconForLeftSideB)"></path><path d="M239.497 200.799c26.556-28.326 36.419-69.551 31.108-107.235-4.805-32.8785-33.637-51.8469-62.722-61.7105C153.001 11.6206 42.4786 14.4026 15.417 62.9617-12.9091 114.809 41.9728 240 144.655 240c37.431-.253 60.446-10.116 82.449-27.82-1.264 1.011-2.529 1.77-3.793 2.782 5.817-4.3 11.381-8.852 16.186-14.163Z" fill="url(#lensIconForLeftSideC)" fill-opacity=".5"></path></g><g><path class="lensIconForLeftSide__lens___R3Rm1" d="M247.501 180.799c26.556-28.326 36.42-69.551 31.108-107.235-4.805-32.8785-33.637-51.8469-62.722-61.7105C161.005-8.37942 50.483-5.59739 23.4214 42.9617-4.90468 94.8086 49.9772 220 152.659 220c37.431-.253 60.446-10.116 82.45-27.82-1.265 1.011-2.529 1.77-3.794 2.782 5.817-4.3 11.381-8.852 16.186-14.163Z" fill="url(#lensIconForLeftSideD)"></path><g class="lensIconForLeftSide__mixSoftLite___BKJEr" opacity=".4"><path d="M247.501 180.799c26.556-28.326 36.42-69.551 31.108-107.235-4.805-32.8785-33.637-51.8469-62.722-61.7105C161.005-8.37942 50.483-5.59739 23.4214 42.9617-4.90468 94.8086 49.9772 220 152.659 220c37.431-.253 60.446-10.116 82.45-27.82-1.265 1.011-2.529 1.77-3.794 2.782 5.817-4.3 11.381-8.852 16.186-14.163Z" fill="url(#lensIconForLeftSideE)" class="lensIconForLeftSide__mixHardLite___1I-vR"></path></g><path d="M278.61 73.5641c-4.806-32.8785-33.637-51.8469-62.722-61.7105C169.099-5.34437 81.5914-5.85019 40.1139 24.7521c-1.7704 1.5175-3.2879 2.7821-5.0582 4.0466C85.3851-8.63222 255.089-7.36766 270.77 79.1282c5.058 31.8668-2.53 87.7608-43.754 118.6158 0 0 2.023-1.518 4.046-3.035 1.265-1.012 2.529-1.77 3.541-2.782-1.264 1.012-2.529 1.77-3.794 2.782 5.817-4.047 11.381-8.599 16.44-13.91 26.808-28.326 36.672-69.551 31.361-107.2349Z" fill="#0F0F0F" class="lensIconForLeftSide__mixMultiple___ukdfY" opacity=".05"></path><path d="M152.66 220c37.43-.253 60.445-10.117 82.449-27.82-17.957 13.404-42.237 22.003-74.609 22.003-106.9819 0-162.36963-136.3196-124.6858-183.6141 2.5291-2.7821 7.8403-7.8403 10.8752-10.1165-9.8635 6.0699-17.9567 13.4043-23.0149 22.5091C-4.90458 94.8085 49.9773 220 152.66 220Z" fill="url(#lensIconForLeftSideF)" class="lensIconForLeftSide__mixMultiple___ukdfY" opacity=".4"></path></g><defs><linearGradient id="lensIconForLeftSideB" x1="170" y1="26" x2="170.163" y2="240" gradientUnits="userSpaceOnUse"><stop stop-color="#B0BDC5"></stop><stop offset="1" stop-color="#F1F1F1"></stop></linearGradient><linearGradient id="lensIconForLeftSideC" x1="228" y1="213" x2="50" y2="35" gradientUnits="userSpaceOnUse"><stop stop-color="#fff"></stop><stop offset="1" stop-color="#fff" stop-opacity="0"></stop></linearGradient><linearGradient id="lensIconForLeftSideD" x1="148" y1="0" x2="148" y2="220" gradientUnits="userSpaceOnUse"><stop stop-color="#334561"></stop><stop offset="1" stop-color="#334561" stop-opacity="1"></stop></linearGradient><radialGradient xmlns="http://www.w3.org/2000/svg" id="mirroredGradient" cx="0" cy="0" r="1" gradientUnits="userSpaceOnUse" gradientTransform="translate(224.393 44) rotate(140.193) scale(231.96 228.159)"><stop stop-color="#334561"></stop><stop offset="1" stop-color="#334561"></stop></radialGradient><linearGradient id="lensIconForLeftSideE" x1="-197.874" y1="125.807" x2="19.3888" y2="381.685" gradientUnits="userSpaceOnUse"><stop stop-color="#fff" stop-opacity=".01"></stop><stop offset=".36355" stop-color="#fff" stop-opacity=".01"></stop><stop offset=".52154" stop-color="#fff" stop-opacity=".8"></stop><stop offset=".64179" stop-color="#fff" stop-opacity=".2"></stop><stop offset=".69663" stop-color="#fff" stop-opacity=".6"></stop><stop offset=".78233" stop-color="#fff" stop-opacity=".01"></stop><stop offset="1" stop-color="#fff" stop-opacity=".01"></stop><stop offset="1" stop-color="#fff" stop-opacity=".01"></stop></linearGradient><linearGradient id="lensIconForLeftSideF" x1="-27.359" y1="88.3447" x2="175.893" y2="234.487" gradientUnits="userSpaceOnUse"><stop stop-color="#fff"></stop><stop offset="1" stop-color="#0F0F0F"></stop></linearGradient><filter id="lensIconForLeftSideA" x="0" y="12" width="279.991" height="236" filterUnits="userSpaceOnUse" color-interpolation-filters="sRGB"><feFlood flood-opacity="0" result="BackgroundImageFix"></feFlood><feBlend in="SourceGraphic" in2="BackgroundImageFix" result="shape"></feBlend><feGaussianBlur stdDeviation="4" result="effect1_foregroundBlur"></feGaussianBlur></filter></defs></svg>