<svg width="60" height="58" fill="none" xmlns="http://www.w3.org/2000/svg"><path fill-rule="evenodd" clip-rule="evenodd" d="m23.83 56.89-2.031-.35c-7.329-1.264-13.57-6.55-17.573-14.88a36.022 36.022 0 0 1-.699-1.555l-.197-.477a37.428 37.428 0 0 1-1.045-2.878l-.117-.359a38 38 0 0 1-.446-1.584l-.094-.386a36.918 36.918 0 0 1-.382-1.734c-.074-.378-.14-.755-.2-1.131l-.075-.472a33.642 33.642 0 0 1-.193-1.557l-.007-.092a30.015 30.015 0 0 1-.101-1.444l-.017-.472c-.012-.36-.017-.718-.016-1.074a27.944 27.944 0 0 1 .056-1.655l.017-.308c.037-.48.089-.954.15-1.42l.056-.356c.052-.35.112-.695.18-1.035.03-.15.157-.758.174-.83.064-.262.134-.52.205-.774l.024-.083c.12-.419.257-.824.403-1.223l.095-.255c.138-.357.281-.71.44-1.048l.09-.183c.231-.473.43-.842.63-1.176.132-.196.263-.378.397-.56.035-.048.19-.24.19-.24a18.246 18.246 0 0 1 1.265-1.48 19.38 19.38 0 0 1 .96-.946 24.182 24.182 0 0 1 1.04-.908s.216-.185.269-.227c.083-.067.396-.303.396-.303l.27-.206c.343-.255.694-.505 1.057-.75l.161-.104c.318-.211.646-.418.98-.62l.336-.202a32.013 32.013 0 0 1 .997-.564l.22-.122c.41-.219.83-.43 1.256-.636l.33-.155a40.366 40.366 0 0 1 1.035-.47l.372-.16c.452-.19.91-.378 1.38-.555l.07-.027c.487-.182.928-.34 1.375-.49l.423-.143c.397-.13.798-.257 1.204-.378l.321-.098a50.558 50.558 0 0 1 1.535-.422l.372-.092c.415-.104.837-.204 1.262-.299l.454-.101a55.522 55.522 0 0 1 1.644-.33l.57-.1 1.063-.165.972-.129.751-.086.8-.078.843-.068c.211-.015.884-.055.884-.055a43.368 43.368 0 0 1 .92-.039l.208-.005c.246-.007.493-.012.744-.015l.982.002s.804.019 1.008.027l.425.018c.202.01.405.022.609.035l.435.031c.205.016.412.034.619.054l.637.062.833.106c.346.048.692.1 1.04.16l2.03.35c.99.174 1.938.386 2.824.636 6.936 1.954 10.895 6.208 11.769 12.641.955 6.906-.325 17.55-5.337 25.761-4.4 7.208-10.866 11.639-19.218 13.17a21.538 21.538 0 0 1-3.874.358 20.22 20.22 0 0 1-3.436-.293Z" fill="url(#a)"/><path fill-rule="evenodd" clip-rule="evenodd" d="M7.09 41.939c-4.227-8.784-4.71-19.028-1.176-24.912C9.6 11.6 17.414 7.452 27.362 5.63a47.261 47.261 0 0 1 8.246-.747c3.286 0 6.302.38 8.963 1.13 6.735 1.895 10.575 5.967 11.412 12.103.945 6.82-.323 17.338-5.286 25.463-4.344 7.104-10.748 11.475-19.03 12.992a21.28 21.28 0 0 1-3.829.353c-8.605 0-16.168-5.462-20.749-14.986Z" fill="url(#b)"/><path fill-rule="evenodd" clip-rule="evenodd" d="M7.09 41.939c-4.227-8.784-4.71-19.028-1.176-24.912C9.6 11.6 17.414 7.452 27.362 5.63a47.261 47.261 0 0 1 8.246-.747c3.286 0 6.302.38 8.963 1.13 6.735 1.895 10.575 5.967 11.412 12.103.945 6.82-.323 17.338-5.286 25.463-4.344 7.104-10.748 11.475-19.03 12.992a21.28 21.28 0 0 1-3.829.353c-8.605 0-16.168-5.462-20.749-14.986Z" fill="url(#c)" fill-opacity=".1"/><path fill-rule="evenodd" clip-rule="evenodd" d="M7.09 41.939c-4.227-8.784-4.71-19.028-1.176-24.912C9.6 11.6 17.414 7.452 27.362 5.63a47.261 47.261 0 0 1 8.246-.747c3.286 0 6.302.38 8.963 1.13 6.735 1.895 10.575 5.967 11.412 12.103.945 6.82-.323 17.338-5.286 25.463-4.344 7.104-10.748 11.475-19.03 12.992a21.28 21.28 0 0 1-3.829.353c-8.605 0-16.168-5.462-20.749-14.986Z" fill="url(#d)" style="mix-blend-mode:hard-light"/><path d="M58.498 37.153 40.695 19.349 58.498 1.545" stroke="#2196F3" stroke-width="2" stroke-linecap="round" stroke-linejoin="round"/><path d="M51.376 1.545h7.12v7.122" stroke="#2196F3" stroke-width="2" stroke-linecap="round" stroke-linejoin="round"/><defs><linearGradient id="a" x1="-21.744" y1="-.71" x2="10.023" y2="67.139" gradientUnits="userSpaceOnUse"><stop stop-color="#F2F3F4"/><stop offset="1" stop-color="#B0BDC4"/></linearGradient><linearGradient id="b" x1="-13.722" y1="32.577" x2="27.643" y2="68.196" gradientUnits="userSpaceOnUse"><stop stop-color="#F7F8F8"/><stop offset="1" stop-color="#E7EBEC"/></linearGradient><linearGradient id="d" x1="-39.15" y1="34.644" x2="12.933" y2="86.422" gradientUnits="userSpaceOnUse"><stop stop-color="#fff" stop-opacity=".01"/><stop offset=".364" stop-color="#fff" stop-opacity=".01"/><stop offset=".522" stop-color="#fff" stop-opacity=".8"/><stop offset=".642" stop-color="#fff" stop-opacity=".2"/><stop offset=".697" stop-color="#fff" stop-opacity=".6"/><stop offset=".782" stop-color="#fff" stop-opacity=".01"/><stop offset="1" stop-color="#fff" stop-opacity=".01"/><stop offset="1" stop-color="#fff" stop-opacity=".01"/></linearGradient><radialGradient id="c" cx="0" cy="0" r="1" gradientUnits="userSpaceOnUse" gradientTransform="matrix(0 52.0414 -52.7144 0 8.776 16.799)"><stop stop-color="#fff"/><stop offset="1" stop-color="#fff" stop-opacity=".5"/></radialGradient></defs></svg>