<svg width="56" height="54" fill="none" xmlns="http://www.w3.org/2000/svg"><path fill-rule="evenodd" clip-rule="evenodd" d="m23.374 52.895-1.99-.342c-7.185-1.24-13.303-6.421-17.228-14.588a35.326 35.326 0 0 1-.686-1.525l-.193-.468a36.76 36.76 0 0 1-1.024-2.821l-.115-.352a37.262 37.262 0 0 1-.437-1.553l-.092-.378a36.19 36.19 0 0 1-.375-1.7c-.072-.371-.136-.74-.195-1.11l-.075-.462a33.008 33.008 0 0 1-.19-1.526l-.005-.09a29.422 29.422 0 0 1-.1-1.417l-.016-.462a29.07 29.07 0 0 1-.011-1.53c.008-.386.026-.768.05-1.146l.017-.302c.036-.47.087-.935.147-1.393l.055-.348c.05-.343.11-.682.175-1.015.03-.147.155-.743.172-.813.062-.258.13-.51.2-.76l.024-.08c.118-.411.252-.808.395-1.2l.093-.25c.135-.35.276-.695.432-1.027l.089-.18c.226-.463.42-.824.617-1.152.13-.192.257-.371.389-.55.034-.047.187-.235.187-.235a17.785 17.785 0 0 1 .389-.489 17.585 17.585 0 0 1 .851-.961 19.174 19.174 0 0 1 .94-.928c.164-.153.332-.304.506-.455a23.662 23.662 0 0 1 .514-.436s.212-.18.264-.222c.081-.065.388-.297.388-.297L7.8 8.13c.337-.25.68-.495 1.037-.735l.158-.102c.312-.207.633-.41.96-.608l.33-.198c.32-.188.645-.372.977-.553l.216-.12c.402-.214.813-.421 1.232-.624l.323-.151a39.551 39.551 0 0 1 1.015-.46l.364-.157c.444-.187.893-.37 1.353-.545l.07-.026c.476-.18.909-.333 1.347-.481l.415-.14a44.54 44.54 0 0 1 1.18-.37l.315-.097c.495-.145.997-.282 1.505-.414l.364-.09c.408-.102.82-.2 1.237-.293l.446-.099a54.373 54.373 0 0 1 1.611-.323l.56-.098 1.042-.162.952-.126.737-.085.783-.077.827-.066c.208-.015.867-.054.867-.054.295-.016.596-.028.903-.038l.203-.005c.241-.007.484-.012.73-.015l.962.002s.788.019.988.026l.417.019c.198.01.397.021.597.034l.427.03c.2.016.404.033.606.053l.625.061.816.103c.34.048.68.099 1.02.158l1.99.343c.972.17 1.9.379 2.77.623 6.799 1.916 10.681 6.086 11.537 12.394.937 6.77-.318 17.205-5.231 25.256-4.315 7.066-10.654 11.41-18.842 12.91-1.269.234-2.547.352-3.799.352-1.132 0-2.265-.096-3.368-.287Z" fill="url(#a)"/><path fill-rule="evenodd" clip-rule="evenodd" d="M6.963 38.238C2.819 29.626 2.346 19.583 5.81 13.814 9.425 8.495 17.086 4.427 26.838 2.642a46.334 46.334 0 0 1 8.084-.733c3.222 0 6.179.373 8.788 1.108 6.603 1.858 10.367 5.85 11.188 11.866.926 6.686-.317 16.998-5.183 24.963-4.259 6.965-10.536 11.25-18.657 12.738-1.256.23-2.519.346-3.753.346-8.436 0-15.851-5.355-20.342-14.692Z" fill="url(#b)"/><path fill-rule="evenodd" clip-rule="evenodd" d="M6.963 38.238C2.819 29.626 2.346 19.583 5.81 13.814 9.425 8.495 17.086 4.427 26.838 2.642a46.334 46.334 0 0 1 8.084-.733c3.222 0 6.179.373 8.788 1.108 6.603 1.858 10.367 5.85 11.188 11.866.926 6.686-.317 16.998-5.183 24.963-4.259 6.965-10.536 11.25-18.657 12.738-1.256.23-2.519.346-3.753.346-8.436 0-15.851-5.355-20.342-14.692Z" fill="url(#c)" fill-opacity=".1"/><path fill-rule="evenodd" clip-rule="evenodd" d="M6.963 38.238C2.819 29.626 2.346 19.583 5.81 13.814 9.425 8.495 17.086 4.427 26.838 2.642a46.334 46.334 0 0 1 8.084-.733c3.222 0 6.179.373 8.788 1.108 6.603 1.858 10.367 5.85 11.188 11.866.926 6.686-.317 16.998-5.183 24.963-4.259 6.965-10.536 11.25-18.657 12.738-1.256.23-2.519.346-3.753.346-8.436 0-15.851-5.355-20.342-14.692Z" fill="url(#d)" style="mix-blend-mode:hard-light"/><defs><linearGradient id="a" x1="-21.305" y1="-3.575" x2="9.839" y2="62.943" gradientUnits="userSpaceOnUse"><stop stop-color="#F2F3F4"/><stop offset="1" stop-color="#B0BDC4"/></linearGradient><linearGradient id="b" x1="-13.44" y1="29.059" x2="27.113" y2="63.98" gradientUnits="userSpaceOnUse"><stop stop-color="#F7F8F8"/><stop offset="1" stop-color="#E7EBEC"/></linearGradient><linearGradient id="d" x1="-38.37" y1="31.085" x2="12.692" y2="81.849" gradientUnits="userSpaceOnUse"><stop stop-color="#fff" stop-opacity=".01"/><stop offset=".364" stop-color="#fff" stop-opacity=".01"/><stop offset=".522" stop-color="#fff" stop-opacity=".8"/><stop offset=".642" stop-color="#fff" stop-opacity=".2"/><stop offset=".697" stop-color="#fff" stop-opacity=".6"/><stop offset=".782" stop-color="#fff" stop-opacity=".01"/><stop offset="1" stop-color="#fff" stop-opacity=".01"/><stop offset="1" stop-color="#fff" stop-opacity=".01"/></linearGradient><radialGradient id="c" cx="0" cy="0" r="1" gradientUnits="userSpaceOnUse" gradientTransform="matrix(0 51.021 -51.6808 0 8.616 13.59)"><stop stop-color="#fff"/><stop offset="1" stop-color="#fff" stop-opacity=".5"/></radialGradient></defs></svg>