<svg width="56" height="54" fill="none" xmlns="http://www.w3.org/2000/svg"><path fill-rule="evenodd" clip-rule="evenodd" d="m23.312 52.895-1.985-.343c-7.165-1.24-13.267-6.42-17.18-14.587a35.378 35.378 0 0 1-.684-1.526l-.193-.467a36.813 36.813 0 0 1-1.021-2.822l-.115-.352a37.363 37.363 0 0 1-.436-1.552l-.092-.379a36.252 36.252 0 0 1-.373-1.7 32.49 32.49 0 0 1-.195-1.109l-.075-.463a33.111 33.111 0 0 1-.188-1.526l-.007-.09a29.521 29.521 0 0 1-.1-1.416L.654 24.1a29.137 29.137 0 0 1-.011-1.53c.008-.387.025-.768.05-1.146l.017-.302c.036-.471.086-.935.146-1.393l.055-.348c.051-.343.11-.682.175-1.015.03-.147.155-.743.171-.814.062-.257.13-.509.2-.759l.023-.081c.118-.41.252-.807.395-1.199l.092-.25c.135-.35.276-.695.43-1.028l.09-.179c.225-.463.419-.825.616-1.152.128-.192.256-.371.387-.55.034-.047.186-.235.186-.235a17.782 17.782 0 0 1 1.237-1.45 19.173 19.173 0 0 1 .937-.929c.164-.153.332-.303.505-.454a23.592 23.592 0 0 1 .513-.436s.211-.18.263-.222c.082-.065.387-.297.387-.297l.264-.202c.335-.25.678-.496 1.034-.735l.157-.102c.311-.207.631-.41.958-.609l.328-.197a31.288 31.288 0 0 1 .975-.553l.216-.12c.4-.214.81-.421 1.228-.624l.322-.151a39.301 39.301 0 0 1 1.012-.46l.364-.158c.442-.187.89-.37 1.349-.544l.069-.026c.475-.18.907-.333 1.344-.482l.413-.139c.388-.127.78-.252 1.178-.37l.314-.097c.493-.145.994-.282 1.5-.414l.364-.09c.406-.102.818-.2 1.234-.293l.443-.099c.53-.114 1.064-.223 1.608-.323l.558-.098 1.039-.162.95-.127.735-.084.781-.077.825-.066a42.102 42.102 0 0 1 1.765-.092l.202-.005c.24-.007.482-.012.728-.015l.96.002s.785.019.985.026l.415.019c.198.01.397.021.596.034l.425.03c.201.016.403.033.605.052l.623.062.814.103c.339.048.678.099 1.018.158l1.985.343c.968.17 1.894.378 2.76.623 6.782 1.916 10.653 6.086 11.507 12.394.934 6.77-.317 17.204-5.217 25.255-4.303 7.067-10.624 11.41-18.79 12.911-1.266.233-2.54.352-3.789.352-1.128 0-2.259-.096-3.359-.287Z" fill="url(#a)"/><path fill-rule="evenodd" clip-rule="evenodd" d="M7.094 38.49c-4.132-8.612-4.604-18.656-1.15-24.424C9.55 8.746 17.19 4.679 26.917 2.894a46.083 46.083 0 0 1 8.061-.733c3.213 0 6.162.372 8.764 1.108 6.585 1.858 10.34 5.85 11.158 11.866.923 6.685-.317 16.997-5.169 24.963-4.247 6.965-10.508 11.25-18.606 12.737a20.75 20.75 0 0 1-3.743.347c-8.413 0-15.808-5.356-20.287-14.692Z" fill="url(#b)"/><path fill-rule="evenodd" clip-rule="evenodd" d="M7.094 38.49c-4.132-8.612-4.604-18.656-1.15-24.424C9.55 8.746 17.19 4.679 26.917 2.894a46.083 46.083 0 0 1 8.061-.733c3.213 0 6.162.372 8.764 1.108 6.585 1.858 10.34 5.85 11.158 11.866.923 6.685-.317 16.997-5.169 24.963-4.247 6.965-10.508 11.25-18.606 12.737a20.75 20.75 0 0 1-3.743.347c-8.413 0-15.808-5.356-20.287-14.692Z" fill="url(#c)" fill-opacity=".1" style="mix-blend-mode:hard-light"/><path fill-rule="evenodd" clip-rule="evenodd" d="M7.094 38.49c-4.132-8.612-4.604-18.656-1.15-24.424C9.55 8.746 17.19 4.679 26.917 2.894a46.083 46.083 0 0 1 8.061-.733c3.213 0 6.162.372 8.764 1.108 6.585 1.858 10.34 5.85 11.158 11.866.923 6.685-.317 16.997-5.169 24.963-4.247 6.965-10.508 11.25-18.606 12.737a20.75 20.75 0 0 1-3.743.347c-8.413 0-15.808-5.356-20.287-14.692Z" fill="url(#d)" fill-opacity=".1"/><defs><linearGradient id="a" x1="-21.245" y1="-3.575" x2="9.953" y2="62.878" gradientUnits="userSpaceOnUse"><stop stop-color="#B1BDC5"/><stop offset="1" stop-color="#5A6972"/></linearGradient><linearGradient id="b" x1="-13.347" y1="29.42" x2="27.409" y2="64.419" gradientUnits="userSpaceOnUse"><stop stop-color="#B0BDC5"/><stop offset="1" stop-color="#5A6971"/></linearGradient><linearGradient id="c" x1="-38.114" y1="31.337" x2="12.945" y2="81.961" gradientUnits="userSpaceOnUse"><stop stop-color="#fff" stop-opacity=".01"/><stop offset=".364" stop-color="#fff" stop-opacity=".01"/><stop offset=".522" stop-color="#fff" stop-opacity=".8"/><stop offset=".642" stop-color="#fff" stop-opacity=".2"/><stop offset=".697" stop-color="#fff" stop-opacity=".6"/><stop offset=".782" stop-color="#fff" stop-opacity=".01"/><stop offset="1" stop-color="#fff" stop-opacity=".01"/><stop offset="1" stop-color="#fff" stop-opacity=".01"/></linearGradient><radialGradient id="d" cx="0" cy="0" r="1" gradientUnits="userSpaceOnUse" gradientTransform="matrix(0 51.0208 -51.5399 0 8.743 13.842)"><stop stop-color="#fff"/><stop offset="1" stop-color="#fff" stop-opacity=".5"/></radialGradient></defs></svg>