<svg xmlns="http://www.w3.org/2000/svg" width="72" height="47" fill="none"><path fill="url(#a)" fill-rule="evenodd" d="M14.388 46.096l-1.22-.202c-4.403-.731-8.152-3.786-10.557-8.602a20.439 20.439 0 01-.42-.9l-.118-.275a21.095 21.095 0 01-.628-1.664l-.07-.207a21.327 21.327 0 01-.268-.916l-.057-.223a20.62 20.62 0 01-.166-.701 14.167 14.167 0 01-.063-.302 18.457 18.457 0 01-.12-.654l-.046-.273a18.789 18.789 0 01-.116-.9l-.004-.053c-.027-.28-.047-.559-.06-.835l-.01-.272a16.494 16.494 0 01-.007-.903c.005-.227.016-.452.03-.675l.01-.178c.023-.278.054-.552.091-.822l.034-.205c.031-.202.067-.402.107-.598.018-.087.095-.439.105-.48.039-.152.08-.3.124-.448l.013-.048c.073-.242.155-.476.243-.706l.057-.148c.083-.206.169-.41.264-.606l.055-.105c.138-.274.257-.487.378-.68a8.88 8.88 0 01.238-.324c.021-.028.115-.139.115-.139a10.695 10.695 0 011.045-1.135 11.605 11.605 0 01.6-.536c.104-.086.21-.172.316-.256l.162-.132c.05-.038.237-.174.237-.174l.162-.12c.207-.147.417-.292.636-.433l.096-.06c.192-.122.388-.242.59-.359l.2-.116a19.473 19.473 0 01.6-.327l.132-.07c.246-.127.498-.249.755-.368l.198-.09c.204-.092.411-.182.622-.27l.223-.093c.272-.11.547-.219.83-.322l.041-.015c.293-.106.558-.196.826-.284l.254-.082c.239-.075.48-.148.724-.219l.193-.056c.303-.086.61-.167.922-.244l.223-.054c.25-.06.503-.117.758-.172l.273-.059c.325-.067.654-.131.988-.19l.343-.058.638-.096.584-.074.451-.05.48-.045.507-.04.531-.031c.18-.01.365-.017.553-.022l.125-.004.447-.008.59.001s.483.011.605.015l.255.011.366.02.262.018.371.031.383.036.5.061c.208.028.417.058.626.093l1.22.202c.594.1 1.163.224 1.696.368 4.166 1.13 6.545 3.589 7.07 7.308.574 3.992-.195 10.145-3.206 14.892-2.644 4.167-6.528 6.729-11.545 7.614-.778.137-1.561.207-2.328.207-.694 0-1.388-.057-2.064-.17z" clip-rule="evenodd"/><path fill="url(#b)" fill-rule="evenodd" d="M4.331 37.453c-2.539-5.078-2.829-11-.706-14.402 2.215-3.136 6.91-5.535 12.885-6.588a29.466 29.466 0 014.954-.432c1.974 0 3.786.22 5.385.653 4.046 1.096 6.353 3.45 6.856 6.998.567 3.942-.195 10.022-3.176 14.72-2.61 4.106-6.457 6.633-11.433 7.51a13.27 13.27 0 01-2.3.204c-5.17 0-9.713-3.157-12.465-8.663z" clip-rule="evenodd"/><path fill="url(#c)" fill-opacity=".1" fill-rule="evenodd" d="M4.331 37.453c-2.539-5.078-2.829-11-.706-14.402 2.215-3.136 6.91-5.535 12.885-6.588a29.466 29.466 0 014.954-.432c1.974 0 3.786.22 5.385.653 4.046 1.096 6.353 3.45 6.856 6.998.567 3.942-.195 10.022-3.176 14.72-2.61 4.106-6.457 6.633-11.433 7.51a13.27 13.27 0 01-2.3.204c-5.17 0-9.713-3.157-12.465-8.663z" clip-rule="evenodd"/><path style="mix-blend-mode:hard-light" fill="url(#d)" fill-rule="evenodd" d="M4.331 37.453c-2.539-5.078-2.829-11-.706-14.402 2.215-3.136 6.91-5.535 12.885-6.588a29.466 29.466 0 014.954-.432c1.974 0 3.786.22 5.385.653 4.046 1.096 6.353 3.45 6.856 6.998.567 3.942-.195 10.022-3.176 14.72-2.61 4.106-6.457 6.633-11.433 7.51a13.27 13.27 0 01-2.3.204c-5.17 0-9.713-3.157-12.465-8.663z" clip-rule="evenodd"/><path fill="url(#e)" fill-rule="evenodd" d="M33.135 46.096l-1.22-.202c-4.403-.731-8.152-3.786-10.557-8.602a20.418 20.418 0 01-.42-.9l-.119-.275a21.298 21.298 0 01-.627-1.664l-.07-.207a21.214 21.214 0 01-.268-.916l-.057-.223c-.06-.234-.115-.467-.166-.701a14.032 14.032 0 01-.063-.302 18.411 18.411 0 01-.12-.654l-.046-.273a18.84 18.84 0 01-.116-.9l-.004-.053c-.028-.28-.047-.559-.06-.835l-.01-.272c-.008-.209-.011-.416-.01-.621 0-.095 0-.188.003-.282.005-.227.016-.452.03-.675l.01-.178c.023-.278.054-.552.09-.822l.035-.205c.03-.202.067-.402.107-.598.018-.087.095-.439.105-.48.038-.152.08-.3.123-.448l.014-.048c.073-.242.155-.476.243-.706l.057-.148c.082-.206.169-.41.264-.606l.055-.105c.138-.274.257-.487.378-.68a8.81 8.81 0 01.238-.324c.021-.028.115-.139.115-.139a10.545 10.545 0 01.76-.855 11.786 11.786 0 01.886-.816c.103-.086.208-.172.315-.256l.161-.132c.05-.038.238-.174.238-.174l.162-.12c.206-.147.417-.292.636-.433l.096-.06c.192-.122.388-.242.589-.359l.202-.116c.196-.112.395-.22.599-.327l.132-.07c.246-.127.498-.249.755-.368l.198-.09c.204-.092.41-.182.622-.27l.223-.093c.272-.11.547-.219.829-.322l.042-.015c.293-.106.557-.196.826-.284l.254-.082c.239-.075.48-.148.724-.219l.193-.056c.303-.086.61-.167.922-.244l.223-.054c.25-.06.503-.117.758-.172l.273-.059c.325-.067.653-.131.988-.19l.342-.058.639-.096.583-.074.452-.05.48-.045.507-.04.53-.031c.182-.01.366-.017.554-.022l.125-.004.447-.008.59.001s.482.011.605.015l.255.011.366.02.262.018.371.031.383.036.5.061c.208.028.416.058.626.093l1.22.202c.594.1 1.163.224 1.696.368 4.166 1.13 6.545 3.589 7.07 7.308.574 3.992-.195 10.145-3.206 14.892-2.644 4.167-6.528 6.729-11.546 7.614-.777.137-1.56.207-2.327.207-.694 0-1.389-.057-2.064-.17z" clip-rule="evenodd"/><path fill="url(#f)" fill-rule="evenodd" d="M23.078 37.453c-2.539-5.078-2.83-11-.706-14.402 2.215-3.136 6.909-5.535 12.885-6.588a29.463 29.463 0 014.954-.432c1.974 0 3.786.22 5.385.653 4.046 1.096 6.353 3.45 6.856 6.998.567 3.942-.195 10.022-3.176 14.72-2.61 4.106-6.457 6.633-11.433 7.51-.77.136-1.543.204-2.3.204-5.17 0-9.713-3.157-12.465-8.663z" clip-rule="evenodd"/><path fill="url(#g)" fill-opacity=".08" fill-rule="evenodd" d="M23.078 37.453c-2.539-5.078-2.83-11-.706-14.402 2.215-3.136 6.909-5.535 12.885-6.588a29.463 29.463 0 014.954-.432c1.974 0 3.786.22 5.385.653 4.046 1.096 6.353 3.45 6.856 6.998.567 3.942-.195 10.022-3.176 14.72-2.61 4.106-6.457 6.633-11.433 7.51-.77.136-1.543.204-2.3.204-5.17 0-9.713-3.157-12.465-8.663z" clip-rule="evenodd"/><path style="mix-blend-mode:hard-light" fill="url(#h)" fill-opacity=".2" fill-rule="evenodd" d="M23.078 37.453c-2.539-5.078-2.83-11-.706-14.402 2.215-3.136 6.909-5.535 12.885-6.588a29.463 29.463 0 014.954-.432c1.974 0 3.786.22 5.385.653 4.046 1.096 6.353 3.45 6.856 6.998.567 3.942-.195 10.022-3.176 14.72-2.61 4.106-6.457 6.633-11.433 7.51-.77.136-1.543.204-2.3.204-5.17 0-9.713-3.157-12.465-8.663z" clip-rule="evenodd"/><path fill="url(#i)" fill-rule="evenodd" d="M52.056 46.83l-1.22-.201c-4.403-.731-8.152-3.786-10.557-8.602a20.416 20.416 0 01-.42-.9l-.118-.275a21.197 21.197 0 01-.628-1.664l-.07-.207c-.097-.306-.186-.61-.268-.916l-.057-.223a20.67 20.67 0 01-.23-1.003 18.64 18.64 0 01-.119-.654l-.046-.272a18.712 18.712 0 01-.116-.9l-.004-.053c-.027-.281-.047-.56-.06-.836l-.01-.272a16.574 16.574 0 01-.007-.903c.005-.227.016-.452.03-.675l.01-.178c.023-.278.054-.552.091-.821l.034-.206c.031-.202.067-.402.107-.598.018-.087.095-.438.105-.48.039-.152.08-.3.123-.448l.014-.047c.073-.242.155-.477.243-.707l.057-.147c.083-.207.169-.41.264-.607l.055-.105c.138-.274.257-.487.378-.68.08-.113.158-.219.238-.324.021-.028.115-.139.115-.139a10.545 10.545 0 01.76-.855 11.43 11.43 0 01.576-.547 11.87 11.87 0 01.625-.525l.161-.131c.05-.039.238-.175.238-.175l.162-.12c.206-.147.417-.292.636-.433l.096-.06c.192-.122.388-.242.589-.359l.202-.116c.196-.112.395-.22.599-.326l.132-.071c.246-.126.498-.249.755-.368l.198-.09c.204-.092.411-.182.622-.27l.223-.093c.272-.11.547-.219.829-.322l.042-.015c.293-.105.558-.196.826-.284l.254-.082c.239-.075.48-.148.724-.219l.193-.056c.303-.086.61-.167.922-.244l.223-.053c.25-.06.503-.118.758-.173l.273-.059c.325-.067.653-.131.988-.19l.343-.058.638-.095.584-.075.451-.05.48-.045.507-.04.53-.031c.182-.01.366-.017.554-.022l.125-.003.447-.01.59.002s.483.011.605.015l.255.011.366.02.262.018.371.031.383.036.5.061c.208.028.417.058.626.093l1.22.203c.594.1 1.163.223 1.696.367 4.166 1.13 6.545 3.589 7.07 7.308.574 3.992-.195 10.145-3.206 14.893-2.644 4.166-6.528 6.728-11.545 7.613-.778.137-1.561.207-2.328.207-.694 0-1.388-.057-2.064-.17z" clip-rule="evenodd"/><path fill="url(#j)" fill-rule="evenodd" d="M42.091 38.336c-2.538-5.078-2.829-11-.706-14.402 2.215-3.136 6.91-5.534 12.886-6.587a29.479 29.479 0 014.953-.432c1.974 0 3.786.22 5.385.653 4.046 1.095 6.353 3.45 6.856 6.997.567 3.942-.194 10.023-3.176 14.72-2.61 4.107-6.456 6.634-11.433 7.51a13.27 13.27 0 01-2.3.205c-5.169 0-9.713-3.158-12.465-8.664z" clip-rule="evenodd"/><path style="mix-blend-mode:hard-light" fill="url(#k)" fill-opacity=".1" fill-rule="evenodd" d="M42.091 38.336c-2.538-5.078-2.829-11-.706-14.402 2.215-3.136 6.91-5.534 12.886-6.587a29.479 29.479 0 014.953-.432c1.974 0 3.786.22 5.385.653 4.046 1.095 6.353 3.45 6.856 6.997.567 3.942-.194 10.023-3.176 14.72-2.61 4.107-6.456 6.634-11.433 7.51a13.27 13.27 0 01-2.3.205c-5.169 0-9.713-3.158-12.465-8.664z" clip-rule="evenodd"/><path fill="url(#l)" fill-opacity=".1" fill-rule="evenodd" d="M42.091 38.336c-2.538-5.078-2.829-11-.706-14.402 2.215-3.136 6.91-5.534 12.886-6.587a29.479 29.479 0 014.953-.432c1.974 0 3.786.22 5.385.653 4.046 1.095 6.353 3.45 6.856 6.997.567 3.942-.194 10.023-3.176 14.72-2.61 4.107-6.456 6.634-11.433 7.51a13.27 13.27 0 01-2.3.205c-5.169 0-9.713-3.158-12.465-8.664z" clip-rule="evenodd"/><path stroke="#2196F3" stroke-dasharray="4 4" stroke-linecap="square" stroke-linejoin="round" stroke-width="2" d="M20.387 5.273h30.57"/><path stroke="#2196F3" stroke-linejoin="round" stroke-width="2" d="M48.73 1.182l4.16 4.158-4.16 4.16"/><defs><linearGradient id="i" x1="24.677" x2="42.587" y1="13.532" y2="53.285" gradientUnits="userSpaceOnUse"><stop stop-color="#B1BDC5"/><stop offset="1" stop-color="#5A6972"/></linearGradient><linearGradient id="a" x1="-12.991" x2="4.919" y1="12.797" y2="52.55" gradientUnits="userSpaceOnUse"><stop stop-color="#F2F3F4"/><stop offset="1" stop-color="#B0BDC4"/></linearGradient><linearGradient id="d" x1="-23.447" x2="6.646" y1="33.235" y2="64.326" gradientUnits="userSpaceOnUse"><stop stop-color="#fff" stop-opacity=".01"/><stop offset=".364" stop-color="#fff" stop-opacity=".01"/><stop offset=".522" stop-color="#fff" stop-opacity=".8"/><stop offset=".642" stop-color="#fff" stop-opacity=".2"/><stop offset=".697" stop-color="#fff" stop-opacity=".6"/><stop offset=".782" stop-color="#fff" stop-opacity=".01"/><stop offset="1" stop-color="#fff" stop-opacity=".01"/><stop offset="1" stop-color="#fff" stop-opacity=".01"/></linearGradient><linearGradient id="e" x1="5.756" x2="23.666" y1="12.797" y2="52.55" gradientUnits="userSpaceOnUse"><stop stop-color="#DEDDDE"/><stop offset="1" stop-color="#A9AAAA"/></linearGradient><linearGradient id="f" x1="10.576" x2="34.608" y1="32.041" y2="53.546" gradientUnits="userSpaceOnUse"><stop stop-color="#DFDEDE"/><stop offset="1" stop-color="#AAAAA9"/></linearGradient><linearGradient id="h" x1="-4.7" x2="25.393" y1="33.235" y2="64.326" gradientUnits="userSpaceOnUse"><stop stop-color="#fff" stop-opacity=".01"/><stop offset=".364" stop-color="#fff" stop-opacity=".01"/><stop offset=".522" stop-color="#fff" stop-opacity=".8"/><stop offset=".642" stop-color="#fff" stop-opacity=".2"/><stop offset=".697" stop-color="#fff" stop-opacity=".6"/><stop offset=".782" stop-color="#fff" stop-opacity=".01"/><stop offset="1" stop-color="#fff" stop-opacity=".01"/><stop offset="1" stop-color="#fff" stop-opacity=".01"/></linearGradient><linearGradient id="b" x1="-8.171" x2="15.861" y1="32.041" y2="53.546" gradientUnits="userSpaceOnUse"><stop stop-color="#F7F8F8"/><stop offset="1" stop-color="#E7EBEC"/></linearGradient><linearGradient id="j" x1="29.532" x2="53.694" y1="32.988" y2="54.61" gradientUnits="userSpaceOnUse"><stop stop-color="#B0BDC5"/><stop offset="1" stop-color="#5A6971"/></linearGradient><linearGradient id="k" x1="14.313" x2="44.407" y1="34.119" y2="65.209" gradientUnits="userSpaceOnUse"><stop stop-color="#fff" stop-opacity=".01"/><stop offset=".364" stop-color="#fff" stop-opacity=".01"/><stop offset=".522" stop-color="#fff" stop-opacity=".8"/><stop offset=".642" stop-color="#fff" stop-opacity=".2"/><stop offset=".697" stop-color="#fff" stop-opacity=".6"/><stop offset=".782" stop-color="#fff" stop-opacity=".01"/><stop offset="1" stop-color="#fff" stop-opacity=".01"/><stop offset="1" stop-color="#fff" stop-opacity=".01"/></linearGradient><radialGradient id="c" cx="0" cy="0" r="1" gradientTransform="matrix(0 30.0853 -31.6687 0 5.344 22.92)" gradientUnits="userSpaceOnUse"><stop stop-color="#fff"/><stop offset="1" stop-color="#fff" stop-opacity=".5"/></radialGradient><radialGradient id="g" cx="0" cy="0" r="1" gradientTransform="scale(31.6687 30.0853) rotate(90 0 .761)" gradientUnits="userSpaceOnUse"><stop stop-color="#fff"/><stop offset="1" stop-color="#fff" stop-opacity=".5"/></radialGradient><radialGradient id="l" cx="0" cy="0" r="1" gradientTransform="matrix(0 30.0853 -31.6687 0 43.105 23.803)" gradientUnits="userSpaceOnUse"><stop stop-color="#fff"/><stop offset="1" stop-color="#fff" stop-opacity=".5"/></radialGradient></defs></svg>